<?xml version="1.0" encoding="utf-8"?>
<!-- Generator: Adobe Illustrator 19.1.0, SVG Export Plug-In . SVG Version: 6.00 Build 0)  -->
<svg version="1.1" id="Layer_1" xmlns="http://www.w3.org/2000/svg" xmlns:xlink="http://www.w3.org/1999/xlink" x="0px" y="0px"
	 viewBox="-272 526.2 67.7 76.4" style="enable-background:new -272 526.2 67.7 76.4;" xml:space="preserve">
<style type="text/css">
	.st0{opacity:0.8;}
	.st1{fill:#D7552A;}
</style>
<g class="st0">
	<g id="YtOS9t.tif">
		<g>
			<path class="st1" d="M-224.9,596.6c-2,1.9-3.7,2.1-5.8,1.4c-11.2-3.8-22.4-7.5-33.6-11.2c-3.2-1.1-4.6-3.6-3.4-6.8
				c3.1-9.4,6.2-18.7,9.4-28.1c1.9-5.6,3.7-11.2,5.6-16.9c1.2-3.6,3.7-4.9,7.3-3.7c11.1,3.7,22,7.4,33,11.1c3.6,1.2,4.8,3.7,3.6,7.2
				c-5,15-10.1,29.9-15.1,45C-224.2,595.4-224.6,596.2-224.9,596.6z M-227.5,595.2c0.4-0.9,0.6-1.2,0.7-1.6
				c5.1-15,10.1-30.1,15.1-45.1c0.6-1.7,0.1-2.5-1.6-3.1c-11.1-3.7-22.2-7.4-33.3-11.2c-1.7-0.6-2.6-0.2-3.1,1.6
				c-5.1,15-10.1,30.1-15.1,45.1c-0.6,1.7-0.2,2.5,1.6,3.1c3.1,1.1,6.2,2.1,9.2,3.1c7.9,2.7,15.9,5.4,23.8,7.9
				C-229.3,595.2-228.3,595.1-227.5,595.2z"/>
		</g>
	</g>
	<g id="FxzYuO.tif">
		<g>
			<path class="st1" d="M-225.9,552.5c6.7,6.7,6.7,17.7-0.1,24.5c-6.7,6.7-17.7,6.7-24.5-0.1c-6.7-6.7-6.7-17.7,0.1-24.5
				C-243.6,545.7-232.6,545.8-225.9,552.5z M-249.5,576.1c6.2,6.2,16.4,6.3,22.6,0.1c6.2-6.2,6.3-16.4,0.1-22.6
				c-6.3-6.3-16.4-6.3-22.7-0.1C-255.7,559.6-255.7,569.8-249.5,576.1z"/>
			<path class="st1" d="M-229.7,573.2c-4.7,4.7-12.2,4.7-16.9,0.1c-4.7-4.7-4.7-12.2-0.1-16.9s12.2-4.6,16.9,0
				C-225,561-225,568.5-229.7,573.2z M-230.6,557.3c-4.2-4.2-10.8-4.2-15,0s-4.2,10.9-0.1,15c4.2,4.2,10.9,4.2,15.1,0
				C-226.5,568.1-226.5,561.4-230.6,557.3z"/>
			<path class="st1" d="M-233.5,569.5c-2.6,2.6-6.8,2.6-9.4,0c-2.6-2.6-2.6-6.8,0.1-9.4c2.6-2.6,6.8-2.6,9.4,0.1
				C-230.8,562.7-230.8,566.9-233.5,569.5z"/>
		</g>
	</g>
</g>
</svg>
